<?xml version="1.0" encoding="UTF-8" standalone="no"?>
<svg
   xmlns:dc="http://purl.org/dc/elements/1.1/"
   xmlns:cc="http://creativecommons.org/ns#"
   xmlns:rdf="http://www.w3.org/1999/02/22-rdf-syntax-ns#"
   xmlns:svg="http://www.w3.org/2000/svg"
   xmlns="http://www.w3.org/2000/svg"
   xmlns:sodipodi="http://sodipodi.sourceforge.net/DTD/sodipodi-0.dtd"
   xmlns:inkscape="http://www.inkscape.org/namespaces/inkscape"
   viewBox="0 0 221.69294 50.48"
   id="svg2"
   version="1.1"
   inkscape:version="0.91 r13725"
   sodipodi:docname="dexi.svg"
   width="221.69295"
   height="50.48">
  <metadata
     id="metadata24">
    <rdf:RDF>
      <cc:Work
         rdf:about="">
        <dc:format>image/svg+xml</dc:format>
        <dc:type
           rdf:resource="http://purl.org/dc/dcmitype/StillImage" />
        <dc:title>dexi</dc:title>
      </cc:Work>
    </rdf:RDF>
  </metadata>
  <sodipodi:namedview
     pagecolor="#395a80"
     bordercolor="#666666"
     borderopacity="1"
     objecttolerance="10"
     gridtolerance="10"
     guidetolerance="10"
     inkscape:pageopacity="0"
     inkscape:pageshadow="2"
     inkscape:window-width="1440"
     inkscape:window-height="851"
     id="namedview22"
     showgrid="false"
     fit-margin-top="0"
     fit-margin-left="0"
     fit-margin-right="0"
     fit-margin-bottom="0"
     inkscape:zoom="1.4246323"
     inkscape:cx="108.09807"
     inkscape:cy="19.26"
     inkscape:window-x="0"
     inkscape:window-y="1"
     inkscape:window-maximized="1"
     inkscape:current-layer="svg2" />
  <defs
     id="defs4">
    <style
       id="style6">.a,.b{fill:none;stroke:#2ecc71;stroke-miterlimit:10;}.a{stroke-width:3px;}.b{stroke-width:3.5px;}.c{font-size:56.51px;fill:#ffffff;font-family:Roboto;font-weight:700;letter-spacing:-1px;}</style>
  </defs>
  <title
     id="title8">dexi</title>
  <line
     class="a"
     x1="33.75"
     y1="41.73"
     x2="15.75"
     y2="41.73"
     id="line10"
     style="fill:none;stroke:#2ecc71;stroke-width:3px;stroke-miterlimit:10" />
  <line
     class="a"
     x1="36.080002"
     y1="14.070001"
     x2="13.53"
     y2="36.610001"
     id="line12"
     style="fill:none;stroke:#2ecc71;stroke-width:3px;stroke-miterlimit:10" />
  <circle
     class="b"
     cx="40.52"
     cy="8.75"
     r="7"
     id="circle14"
     style="fill:none;stroke:#2ecc71;stroke-width:3.5px;stroke-miterlimit:10" />
  <circle
     class="b"
     cx="8.75"
     cy="41.73"
     r="7"
     id="circle16"
     style="fill:none;stroke:#2ecc71;stroke-width:3.5px;stroke-miterlimit:10" />
  <circle
     class="b"
     cx="40.75"
     cy="41.73"
     r="7"
     id="circle18"
     style="fill:none;stroke:#2ecc71;stroke-width:3.5px;stroke-miterlimit:10" />
  <g
     transform="translate(60.26,47.73)"
     style="fill:#ffffff"
     id="text20">
    <path
       d="m 1.8487158,-14.679355 q 0,-7.06375 3.035205,-11.395815 3.0627977,-4.332065 8.6089452,-4.332065 2.235014,0 4.028545,0.965747 1.79353,0.965747 3.145576,2.759277 l 0,-16.362514 8.084682,0 0,43.044725 -6.925786,0 -0.662226,-3.642246 q -1.407232,2.069458 -3.338726,3.14557609 -1.903901,1.07611813 -4.387251,1.07611813 -5.4909615,0 -8.5537592,-4.02854482 -3.035205,-4.0285448 -3.035205,-10.6508104 l 0,-0.579448 z m 8.0294968,0.579448 q 0,3.918174 1.3244534,6.1807813 1.324453,2.2350145 4.304472,2.2350145 1.738345,0 3.035205,-0.6898193 1.296861,-0.7174121 2.124644,-2.0694579 l 0,-12.7202686 q -0.827783,-1.407231 -2.124644,-2.179829 -1.269267,-0.80019 -2.980019,-0.80019 -2.952427,0 -4.332066,2.621313 -1.3520454,2.621314 -1.3520454,6.843008 l 0,0.579448 z"
       style="fill:#ffffff"
       id="path3353"
       inkscape:connector-curvature="0" />
    <path
       d="m 47.204574,0.57944822 q -6.456709,0 -10.319697,-4.13891592 -3.862988,-4.1389159 -3.862988,-10.5128463 l 0,-1.103711 q 0,-6.649858 3.642246,-10.954331 3.669839,-4.304472 9.823027,-4.276879 6.042817,0 9.381543,3.642246 3.338725,3.642246 3.338725,9.850619 l 0,4.387251 -17.824931,0 -0.05519,0.165557 q 0.220743,2.9524265 1.959087,4.8563278 1.765938,1.9039014 4.77355,1.9039014 2.676499,0 4.442436,-0.5242627 1.765938,-0.5518555 3.862989,-1.7107519 l 2.179829,4.966699 q -1.821123,1.4900098 -4.77355,2.48334958 -2.952427,0.96574704 -6.56708,0.96574704 z M 46.487162,-24.198862 q -2.235015,0 -3.531875,1.710752 -1.29686,1.710752 -1.600381,4.497622 l 0.08278,0.137964 9.878212,0 0,-0.717412 q 0,-2.566128 -1.214082,-4.08373 -1.186489,-1.545196 -3.614653,-1.545196 z"
       style="fill:#ffffff"
       id="path3355"
       inkscape:connector-curvature="0" />
    <path
       d="m 74.128461,-20.363466 0.165556,0 4.580401,-9.491914 9.105615,0 -8.995244,14.762133 L 88.283553,0 79.205531,0 74.32161,-9.9058054 69.437689,0 l -9.105615,0 9.298765,-15.093247 -9.022837,-14.762133 9.05043,0 4.470029,9.491914 z"
       style="fill:#ffffff"
       id="path3357"
       inkscape:connector-curvature="0" />
    <path
       d="m 99.286408,0 -8.057089,0 0,-29.85538 8.057089,0 0,29.85538 z m 0,-37.001908 -8.057089,0 0,-6.042817 8.057089,0 0,6.042817 z"
       style="fill:#ffffff"
       id="path3359"
       inkscape:connector-curvature="0" />
    <path
       d="m 113.87633,0 -8.05709,0 0,-7.0637498 8.05709,0 0,7.0637498 z"
       style="fill:#ffffff"
       id="path3361"
       inkscape:connector-curvature="0" />
    <path
       d="m 128.85254,0 -8.05709,0 0,-29.85538 8.05709,0 0,29.85538 z m 0,-37.001908 -8.05709,0 0,-6.042817 8.05709,0 0,6.042817 z"
       style="font-weight:700;font-size:56.50999832px;letter-spacing:-1px;fill:#ffffff"
       id="path3363"
       inkscape:connector-curvature="0" />
    <path
       d="m 133.26072,-15.203618 q 0,-6.677451 3.72502,-10.926738 3.72503,-4.276879 10.3197,-4.276879 6.62227,0 10.37488,4.249287 3.75262,4.249287 3.75262,10.95433 l 0,0.579449 q 0,6.732636 -3.75262,10.981923 -3.72502,4.22169422 -10.31969,4.22169422 -6.62227,0 -10.37489,-4.22169422 -3.72502,-4.249287 -3.72502,-10.981923 l 0,-0.579449 z m 8.0295,0.579449 q 0,4.08373 1.43482,6.5670794 1.43482,2.4557568 4.63559,2.4557568 3.11798,0 4.5528,-2.4833496 1.46242,-2.4833496 1.46242,-6.5394866 l 0,-0.579449 q 0,-3.973359 -1.46242,-6.484301 -1.46241,-2.510943 -4.60799,-2.510943 -3.11798,0 -4.5804,2.538535 -1.43482,2.510943 -1.43482,6.456709 l 0,0.579449 z"
       style="fill:#ffffff"
       id="path3365"
       inkscape:connector-curvature="0" />
  </g>
</svg>
